<?xml version="1.0" encoding="UTF-8"?>
<!DOCTYPE svg PUBLIC "-//W3C//DTD SVG 1.1//EN" "http://www.w3.org/Graphics/SVG/1.1/DTD/svg11.dtd">
<svg xmlns="http://www.w3.org/2000/svg" version="1.1" width="513px" height="300px" style="shape-rendering:geometricPrecision; text-rendering:geometricPrecision; image-rendering:optimizeQuality; fill-rule:evenodd; clip-rule:evenodd" xmlns:xlink="http://www.w3.org/1999/xlink">
<style>
  .logo {
    fill: #000000;
  }
  @media (prefers-color-scheme: dark) {
      .logo { fill: white; }
  }
</style>
<g><path style="opacity:0.98" class="logo" d="M 87.5,-0.5 C 129.833,-0.5 172.167,-0.5 214.5,-0.5C 214.5,2.83333 214.5,6.16667 214.5,9.5C 209.551,8.95886 204.884,9.79219 200.5,12C 198.571,15.2559 198.071,18.7559 199,22.5C 217.751,51.671 236.751,80.671 256,109.5C 275.249,80.671 294.249,51.671 313,22.5C 314.262,18.0906 313.428,14.2572 310.5,11C 306.27,9.71011 301.936,9.21011 297.5,9.5C 297.5,6.16667 297.5,2.83333 297.5,-0.5C 339.833,-0.5 382.167,-0.5 424.5,-0.5C 424.5,2.83333 424.5,6.16667 424.5,9.5C 410.425,9.76728 396.425,10.9339 382.5,13C 380.413,13.7922 378.579,14.9588 377,16.5C 348.242,59.0231 319.742,101.69 291.5,144.5C 268.006,145.498 244.339,145.831 220.5,145.5C 220.5,145.167 220.5,144.833 220.5,144.5C 192.754,101.346 164.254,58.6789 135,16.5C 131.839,13.4433 128.005,11.9433 123.5,12C 111.538,10.5798 99.5378,9.74647 87.5,9.5C 87.5,6.16667 87.5,2.83333 87.5,-0.5 Z"/></g>
<g><path style="opacity:0.951" class="logo" d="M 143.5,145.5 C 143.5,148.167 143.5,150.833 143.5,153.5C 143.67,154.822 143.337,155.989 142.5,157C 119.502,157.5 96.5024,157.667 73.5,157.5C 76.6124,179.116 88.9457,188.283 110.5,185C 112.949,184.275 115.283,183.275 117.5,182C 121.391,178.931 125.058,175.764 128.5,172.5C 129.938,172.719 131.271,173.219 132.5,174C 136.195,176.7 139.528,179.7 142.5,183C 133.035,198.573 119.035,206.406 100.5,206.5C 67.1201,203.428 50.4534,185.095 50.5,151.5C 50.5,150.167 50.5,148.833 50.5,147.5C 50.5145,123.949 60.8479,106.782 81.5,96C 101.433,89.1294 118.599,93.296 133,108.5C 140.385,119.705 143.885,132.038 143.5,145.5 Z M 91.5,113.5 C 109.592,111.255 119.259,119.255 120.5,137.5C 105.167,137.5 89.8333,137.5 74.5,137.5C 75.7701,126.263 81.4368,118.263 91.5,113.5 Z"/></g>
<g><path style="opacity:0.947" class="logo" d="M 458.5,147.5 C 457.167,148.833 457.167,150.167 458.5,151.5C 458.333,163.838 458.5,176.171 459,188.5C 460.745,193.386 461.412,198.386 461,203.5C 453.914,204.646 446.747,204.812 439.5,204C 437.888,201.678 436.555,199.178 435.5,196.5C 417.061,209.905 398.728,209.738 380.5,196C 368.986,182.73 367.652,168.563 376.5,153.5C 378.833,150.833 381.167,148.167 383.5,145.5C 389.939,141.406 396.939,138.573 404.5,137C 414.793,135.734 425.126,135.234 435.5,135.5C 437.257,122.78 431.924,115.28 419.5,113C 410.976,111.765 403.809,114.265 398,120.5C 397.202,123.543 396.035,126.376 394.5,129C 372.352,134.889 367.185,128.389 379,109.5C 392.587,95.3072 409.087,90.1405 428.5,94C 445.456,97.2888 455.289,107.455 458,124.5C 458.5,132.159 458.666,139.826 458.5,147.5 Z M 418.5,153.5 C 424.167,153.5 429.833,153.5 435.5,153.5C 435.666,159.509 435.499,165.509 435,171.5C 429.591,180.046 421.758,184.712 411.5,185.5C 397.913,184.754 392.413,177.754 395,164.5C 396.892,160.942 399.725,158.442 403.5,157C 408.545,155.425 413.545,154.259 418.5,153.5 Z"/></g>
<g><path style="opacity:0.801" fill="#efd786" d="M 220.5,144.5 C 220.5,144.833 220.5,145.167 220.5,145.5C 217.363,147.773 214.029,149.94 210.5,152C 209.748,152.671 209.414,153.504 209.5,154.5C 199.82,154.482 190.153,154.148 180.5,153.5C 183.5,151.167 186.167,148.5 188.5,145.5C 199.146,144.688 209.813,144.354 220.5,144.5 Z"/></g>
<g><path style="opacity:0.824" fill="#f0db91" d="M 294.5,144.5 C 305.185,144.39 315.852,144.723 326.5,145.5C 326.167,148.167 325.833,150.833 325.5,153.5C 315.873,154.421 306.206,154.755 296.5,154.5C 295.213,151.302 294.547,147.969 294.5,144.5 Z"/></g>
<g><path style="opacity:0.916" fill="#ebc22f" d="M 143.5,145.5 C 151.5,145.5 159.5,145.5 167.5,145.5C 165.167,148.167 162.833,150.833 160.5,153.5C 154.833,153.5 149.167,153.5 143.5,153.5C 143.5,150.833 143.5,148.167 143.5,145.5 Z"/></g>
<g><path style="opacity:0.942" fill="#edcf6a" d="M 326.5,145.5 C 334.167,145.5 341.833,145.5 349.5,145.5C 348.629,148.112 347.963,150.779 347.5,153.5C 340.167,153.5 332.833,153.5 325.5,153.5C 325.833,150.833 326.167,148.167 326.5,145.5 Z"/></g>
<g><path style="opacity:0.851" fill="#ecc22e" d="M 349.5,145.5 C 360.833,145.5 372.167,145.5 383.5,145.5C 381.167,148.167 378.833,150.833 376.5,153.5C 366.833,153.5 357.167,153.5 347.5,153.5C 347.963,150.779 348.629,148.112 349.5,145.5 Z"/></g>
<g><path style="opacity:0.588" fill="#c2922d" d="M 50.5,147.5 C 50.5,148.833 50.5,150.167 50.5,151.5C 33.5082,150.834 16.5082,150.5 -0.5,150.5C -0.5,149.833 -0.5,149.167 -0.5,148.5C 16.5097,148.555 33.5097,148.222 50.5,147.5 Z"/></g>
<g><path style="opacity:1" fill="#f9ebab" d="M 291.5,144.5 C 292.5,144.5 293.5,144.5 294.5,144.5C 294.547,147.969 295.213,151.302 296.5,154.5C 294.833,154.5 293.167,154.5 291.5,154.5C 267.931,153.173 244.264,153.173 220.5,154.5C 216.833,154.5 213.167,154.5 209.5,154.5C 209.414,153.504 209.748,152.671 210.5,152C 214.029,149.94 217.363,147.773 220.5,145.5C 244.339,145.831 268.006,145.498 291.5,144.5 Z"/></g>
<g><path style="opacity:0.594" fill="#c1912d" d="M 458.5,147.5 C 476.493,148.138 494.493,148.471 512.5,148.5C 512.5,149.167 512.5,149.833 512.5,150.5C 494.494,150.559 476.494,150.892 458.5,151.5C 457.167,150.167 457.167,148.833 458.5,147.5 Z"/></g>
<g><path style="opacity:1" fill="#edcb58" d="M 167.5,145.5 C 174.5,145.5 181.5,145.5 188.5,145.5C 186.167,148.5 183.5,151.167 180.5,153.5C 173.833,153.5 167.167,153.5 160.5,153.5C 162.833,150.833 165.167,148.167 167.5,145.5 Z"/></g>
<g><path style="opacity:0.979" class="logo" d="M 291.5,154.5 C 319.956,198.576 349.29,242.076 379.5,285C 394.331,288.012 409.331,289.512 424.5,289.5C 424.5,292.833 424.5,296.167 424.5,299.5C 382.167,299.5 339.833,299.5 297.5,299.5C 297.5,296.167 297.5,292.833 297.5,289.5C 301.936,289.79 306.27,289.29 310.5,288C 313.428,284.743 314.262,280.909 313,276.5C 294.249,247.329 275.249,218.329 256,189.5C 236.751,218.329 217.751,247.329 199,276.5C 197.849,280.829 198.682,284.662 201.5,288C 205.73,289.29 210.064,289.79 214.5,289.5C 214.5,292.833 214.5,296.167 214.5,299.5C 172.167,299.5 129.833,299.5 87.5,299.5C 87.5,296.167 87.5,292.833 87.5,289.5C 102.669,289.512 117.669,288.012 132.5,285C 133.667,283.833 134.833,282.667 136,281.5C 164.683,239.453 192.85,197.12 220.5,154.5C 244.264,153.173 267.931,153.173 291.5,154.5 Z"/></g>
</svg>
